<mxfile host="app.diagrams.net" agent="Mozilla/5.0 (Windows NT 10.0; Win64; x64; rv:141.0) Gecko/20100101 Firefox/141.0" version="28.1.0">
  <diagram name="Strona-1" id="6wTZtIodIxsrNo1UNoBq">
    <mxGraphModel dx="1426" dy="758" grid="1" gridSize="10" guides="1" tooltips="1" connect="1" arrows="1" fold="1" page="1" pageScale="1" pageWidth="827" pageHeight="1169" math="0" shadow="0">
      <root>
        <mxCell id="0" />
        <mxCell id="1" parent="0" />
        <mxCell id="NsyLQ7PbHrCSLDHFmtmj-25" style="edgeStyle=orthogonalEdgeStyle;rounded=0;orthogonalLoop=1;jettySize=auto;html=1;exitX=0.5;exitY=1;exitDx=0;exitDy=0;" edge="1" parent="1" source="NsyLQ7PbHrCSLDHFmtmj-6" target="NsyLQ7PbHrCSLDHFmtmj-24">
          <mxGeometry relative="1" as="geometry" />
        </mxCell>
        <mxCell id="NsyLQ7PbHrCSLDHFmtmj-6" value="Harpy Alliances" style="rounded=0;whiteSpace=wrap;html=1;" vertex="1" parent="1">
          <mxGeometry x="354" width="120" height="60" as="geometry" />
        </mxCell>
        <mxCell id="NsyLQ7PbHrCSLDHFmtmj-96" style="edgeStyle=orthogonalEdgeStyle;rounded=0;orthogonalLoop=1;jettySize=auto;html=1;exitX=0.5;exitY=1;exitDx=0;exitDy=0;entryX=0.75;entryY=0;entryDx=0;entryDy=0;" edge="1" parent="1" source="NsyLQ7PbHrCSLDHFmtmj-7" target="NsyLQ7PbHrCSLDHFmtmj-84">
          <mxGeometry relative="1" as="geometry" />
        </mxCell>
        <mxCell id="NsyLQ7PbHrCSLDHFmtmj-7" value="G&#39;hanir Recovery" style="rounded=0;whiteSpace=wrap;html=1;" vertex="1" parent="1">
          <mxGeometry x="707" y="960" width="120" height="60" as="geometry" />
        </mxCell>
        <mxCell id="NsyLQ7PbHrCSLDHFmtmj-14" style="edgeStyle=orthogonalEdgeStyle;rounded=0;orthogonalLoop=1;jettySize=auto;html=1;exitX=0.5;exitY=1;exitDx=0;exitDy=0;" edge="1" parent="1" source="NsyLQ7PbHrCSLDHFmtmj-8" target="NsyLQ7PbHrCSLDHFmtmj-13">
          <mxGeometry relative="1" as="geometry" />
        </mxCell>
        <mxCell id="NsyLQ7PbHrCSLDHFmtmj-22" style="edgeStyle=orthogonalEdgeStyle;rounded=0;orthogonalLoop=1;jettySize=auto;html=1;exitX=0.75;exitY=1;exitDx=0;exitDy=0;" edge="1" parent="1" source="NsyLQ7PbHrCSLDHFmtmj-8" target="NsyLQ7PbHrCSLDHFmtmj-21">
          <mxGeometry relative="1" as="geometry" />
        </mxCell>
        <mxCell id="NsyLQ7PbHrCSLDHFmtmj-8" value="Strenghten the Flock" style="rounded=0;whiteSpace=wrap;html=1;" vertex="1" parent="1">
          <mxGeometry width="120" height="60" as="geometry" />
        </mxCell>
        <mxCell id="NsyLQ7PbHrCSLDHFmtmj-10" value="Tag Specific" style="rounded=0;whiteSpace=wrap;html=1;" vertex="1" parent="1">
          <mxGeometry x="540" width="120" height="60" as="geometry" />
        </mxCell>
        <mxCell id="NsyLQ7PbHrCSLDHFmtmj-11" value="Tag Specific" style="rounded=0;whiteSpace=wrap;html=1;" vertex="1" parent="1">
          <mxGeometry x="707" width="120" height="60" as="geometry" />
        </mxCell>
        <mxCell id="NsyLQ7PbHrCSLDHFmtmj-16" style="edgeStyle=orthogonalEdgeStyle;rounded=0;orthogonalLoop=1;jettySize=auto;html=1;exitX=0.5;exitY=1;exitDx=0;exitDy=0;" edge="1" parent="1" source="NsyLQ7PbHrCSLDHFmtmj-13" target="NsyLQ7PbHrCSLDHFmtmj-15">
          <mxGeometry relative="1" as="geometry" />
        </mxCell>
        <mxCell id="NsyLQ7PbHrCSLDHFmtmj-13" value="Aquire New Roosts" style="rounded=0;whiteSpace=wrap;html=1;" vertex="1" parent="1">
          <mxGeometry y="120" width="120" height="60" as="geometry" />
        </mxCell>
        <mxCell id="NsyLQ7PbHrCSLDHFmtmj-19" style="edgeStyle=orthogonalEdgeStyle;rounded=0;orthogonalLoop=1;jettySize=auto;html=1;exitX=0.5;exitY=1;exitDx=0;exitDy=0;" edge="1" parent="1" source="NsyLQ7PbHrCSLDHFmtmj-15" target="NsyLQ7PbHrCSLDHFmtmj-17">
          <mxGeometry relative="1" as="geometry" />
        </mxCell>
        <mxCell id="NsyLQ7PbHrCSLDHFmtmj-20" style="edgeStyle=orthogonalEdgeStyle;rounded=0;orthogonalLoop=1;jettySize=auto;html=1;exitX=0.75;exitY=1;exitDx=0;exitDy=0;" edge="1" parent="1" source="NsyLQ7PbHrCSLDHFmtmj-15" target="NsyLQ7PbHrCSLDHFmtmj-18">
          <mxGeometry relative="1" as="geometry" />
        </mxCell>
        <mxCell id="NsyLQ7PbHrCSLDHFmtmj-15" value="Regional Domination" style="rounded=0;whiteSpace=wrap;html=1;" vertex="1" parent="1">
          <mxGeometry y="240" width="120" height="60" as="geometry" />
        </mxCell>
        <mxCell id="NsyLQ7PbHrCSLDHFmtmj-32" style="edgeStyle=orthogonalEdgeStyle;rounded=0;orthogonalLoop=1;jettySize=auto;html=1;exitX=0.5;exitY=1;exitDx=0;exitDy=0;" edge="1" parent="1" source="NsyLQ7PbHrCSLDHFmtmj-17" target="NsyLQ7PbHrCSLDHFmtmj-23">
          <mxGeometry relative="1" as="geometry" />
        </mxCell>
        <mxCell id="NsyLQ7PbHrCSLDHFmtmj-17" value="The Harpy Kingdom" style="rounded=0;whiteSpace=wrap;html=1;" vertex="1" parent="1">
          <mxGeometry y="360" width="120" height="60" as="geometry" />
        </mxCell>
        <mxCell id="NsyLQ7PbHrCSLDHFmtmj-34" style="edgeStyle=orthogonalEdgeStyle;rounded=0;orthogonalLoop=1;jettySize=auto;html=1;exitX=0.5;exitY=1;exitDx=0;exitDy=0;" edge="1" parent="1" source="NsyLQ7PbHrCSLDHFmtmj-18" target="NsyLQ7PbHrCSLDHFmtmj-33">
          <mxGeometry relative="1" as="geometry" />
        </mxCell>
        <mxCell id="NsyLQ7PbHrCSLDHFmtmj-18" value="Multi-Regional Presence" style="rounded=0;whiteSpace=wrap;html=1;" vertex="1" parent="1">
          <mxGeometry x="180" y="360" width="120" height="60" as="geometry" />
        </mxCell>
        <mxCell id="NsyLQ7PbHrCSLDHFmtmj-21" value="Appease the Tribal Councils" style="rounded=0;whiteSpace=wrap;html=1;" vertex="1" parent="1">
          <mxGeometry x="180" y="120" width="120" height="60" as="geometry" />
        </mxCell>
        <mxCell id="NsyLQ7PbHrCSLDHFmtmj-23" value="The Flock Among Strong" style="rounded=0;whiteSpace=wrap;html=1;" vertex="1" parent="1">
          <mxGeometry y="480" width="120" height="60" as="geometry" />
        </mxCell>
        <mxCell id="NsyLQ7PbHrCSLDHFmtmj-24" value="Subjegation of Ground Walkers" style="rounded=0;whiteSpace=wrap;html=1;" vertex="1" parent="1">
          <mxGeometry x="354" y="120" width="120" height="60" as="geometry" />
        </mxCell>
        <mxCell id="NsyLQ7PbHrCSLDHFmtmj-30" style="edgeStyle=orthogonalEdgeStyle;rounded=0;orthogonalLoop=1;jettySize=auto;html=1;exitX=0.5;exitY=1;exitDx=0;exitDy=0;" edge="1" parent="1" source="NsyLQ7PbHrCSLDHFmtmj-26" target="NsyLQ7PbHrCSLDHFmtmj-28">
          <mxGeometry relative="1" as="geometry" />
        </mxCell>
        <mxCell id="NsyLQ7PbHrCSLDHFmtmj-26" value="The Magnificent Lady" style="rounded=0;whiteSpace=wrap;html=1;" vertex="1" parent="1">
          <mxGeometry x="354" y="240" width="120" height="60" as="geometry" />
        </mxCell>
        <mxCell id="NsyLQ7PbHrCSLDHFmtmj-31" style="edgeStyle=orthogonalEdgeStyle;rounded=0;orthogonalLoop=1;jettySize=auto;html=1;exitX=0.5;exitY=1;exitDx=0;exitDy=0;" edge="1" parent="1" source="NsyLQ7PbHrCSLDHFmtmj-28" target="NsyLQ7PbHrCSLDHFmtmj-29">
          <mxGeometry relative="1" as="geometry" />
        </mxCell>
        <mxCell id="NsyLQ7PbHrCSLDHFmtmj-28" value="The Wise Flock" style="rounded=0;whiteSpace=wrap;html=1;" vertex="1" parent="1">
          <mxGeometry x="354" y="360" width="120" height="60" as="geometry" />
        </mxCell>
        <mxCell id="NsyLQ7PbHrCSLDHFmtmj-29" value="Rise of the Harpy Queen" style="rounded=0;whiteSpace=wrap;html=1;" vertex="1" parent="1">
          <mxGeometry x="354" y="480" width="120" height="60" as="geometry" />
        </mxCell>
        <mxCell id="NsyLQ7PbHrCSLDHFmtmj-33" value="Projection of Our Might" style="rounded=0;whiteSpace=wrap;html=1;" vertex="1" parent="1">
          <mxGeometry x="180" y="480" width="120" height="60" as="geometry" />
        </mxCell>
        <mxCell id="NsyLQ7PbHrCSLDHFmtmj-65" value="Source of Male Slaves" style="rounded=0;whiteSpace=wrap;html=1;" vertex="1" parent="1">
          <mxGeometry x="354" y="600" width="120" height="60" as="geometry" />
        </mxCell>
        <mxCell id="NsyLQ7PbHrCSLDHFmtmj-66" style="edgeStyle=orthogonalEdgeStyle;rounded=0;orthogonalLoop=1;jettySize=auto;html=1;exitX=0.25;exitY=1;exitDx=0;exitDy=0;" edge="1" parent="1" source="NsyLQ7PbHrCSLDHFmtmj-69" target="NsyLQ7PbHrCSLDHFmtmj-75">
          <mxGeometry relative="1" as="geometry" />
        </mxCell>
        <mxCell id="NsyLQ7PbHrCSLDHFmtmj-67" style="edgeStyle=orthogonalEdgeStyle;rounded=0;orthogonalLoop=1;jettySize=auto;html=1;exitX=0.5;exitY=1;exitDx=0;exitDy=0;" edge="1" parent="1" source="NsyLQ7PbHrCSLDHFmtmj-69" target="NsyLQ7PbHrCSLDHFmtmj-71">
          <mxGeometry relative="1" as="geometry" />
        </mxCell>
        <mxCell id="NsyLQ7PbHrCSLDHFmtmj-68" style="edgeStyle=orthogonalEdgeStyle;rounded=0;orthogonalLoop=1;jettySize=auto;html=1;exitX=0.75;exitY=1;exitDx=0;exitDy=0;" edge="1" parent="1" source="NsyLQ7PbHrCSLDHFmtmj-69" target="NsyLQ7PbHrCSLDHFmtmj-73">
          <mxGeometry relative="1" as="geometry" />
        </mxCell>
        <mxCell id="NsyLQ7PbHrCSLDHFmtmj-69" value="The Cult of Aviana" style="rounded=0;whiteSpace=wrap;html=1;" vertex="1" parent="1">
          <mxGeometry x="354.5" y="720" width="120" height="60" as="geometry" />
        </mxCell>
        <mxCell id="NsyLQ7PbHrCSLDHFmtmj-70" style="edgeStyle=orthogonalEdgeStyle;rounded=0;orthogonalLoop=1;jettySize=auto;html=1;exitX=0.5;exitY=1;exitDx=0;exitDy=0;" edge="1" parent="1" source="NsyLQ7PbHrCSLDHFmtmj-71" target="NsyLQ7PbHrCSLDHFmtmj-81">
          <mxGeometry relative="1" as="geometry" />
        </mxCell>
        <mxCell id="NsyLQ7PbHrCSLDHFmtmj-71" value="Return to Stonetalon" style="rounded=0;whiteSpace=wrap;html=1;" vertex="1" parent="1">
          <mxGeometry x="354.5" y="840" width="120" height="60" as="geometry" />
        </mxCell>
        <mxCell id="NsyLQ7PbHrCSLDHFmtmj-72" style="edgeStyle=orthogonalEdgeStyle;rounded=0;orthogonalLoop=1;jettySize=auto;html=1;exitX=0.5;exitY=1;exitDx=0;exitDy=0;" edge="1" parent="1" source="NsyLQ7PbHrCSLDHFmtmj-73" target="NsyLQ7PbHrCSLDHFmtmj-78">
          <mxGeometry relative="1" as="geometry" />
        </mxCell>
        <mxCell id="NsyLQ7PbHrCSLDHFmtmj-73" value="The Shrine of Aviana" style="rounded=0;whiteSpace=wrap;html=1;" vertex="1" parent="1">
          <mxGeometry x="540.5" y="840" width="120" height="60" as="geometry" />
        </mxCell>
        <mxCell id="NsyLQ7PbHrCSLDHFmtmj-74" style="edgeStyle=orthogonalEdgeStyle;rounded=0;orthogonalLoop=1;jettySize=auto;html=1;exitX=0.5;exitY=1;exitDx=0;exitDy=0;" edge="1" parent="1" source="NsyLQ7PbHrCSLDHFmtmj-75" target="NsyLQ7PbHrCSLDHFmtmj-87">
          <mxGeometry relative="1" as="geometry" />
        </mxCell>
        <mxCell id="NsyLQ7PbHrCSLDHFmtmj-75" value="Prayer to Master Al&#39;akir" style="rounded=0;whiteSpace=wrap;html=1;" vertex="1" parent="1">
          <mxGeometry x="170.5" y="840" width="120" height="60" as="geometry" />
        </mxCell>
        <mxCell id="NsyLQ7PbHrCSLDHFmtmj-77" style="edgeStyle=orthogonalEdgeStyle;rounded=0;orthogonalLoop=1;jettySize=auto;html=1;exitX=0.5;exitY=1;exitDx=0;exitDy=0;" edge="1" parent="1" source="NsyLQ7PbHrCSLDHFmtmj-78" target="NsyLQ7PbHrCSLDHFmtmj-84">
          <mxGeometry relative="1" as="geometry" />
        </mxCell>
        <mxCell id="NsyLQ7PbHrCSLDHFmtmj-78" value="The Peaks of Hyjal" style="rounded=0;whiteSpace=wrap;html=1;" vertex="1" parent="1">
          <mxGeometry x="540.5" y="960" width="120" height="60" as="geometry" />
        </mxCell>
        <mxCell id="NsyLQ7PbHrCSLDHFmtmj-79" style="edgeStyle=orthogonalEdgeStyle;rounded=0;orthogonalLoop=1;jettySize=auto;html=1;exitX=0.5;exitY=1;exitDx=0;exitDy=0;entryX=0.5;entryY=0;entryDx=0;entryDy=0;" edge="1" parent="1" source="NsyLQ7PbHrCSLDHFmtmj-81" target="NsyLQ7PbHrCSLDHFmtmj-83">
          <mxGeometry relative="1" as="geometry" />
        </mxCell>
        <mxCell id="NsyLQ7PbHrCSLDHFmtmj-80" style="edgeStyle=orthogonalEdgeStyle;rounded=0;orthogonalLoop=1;jettySize=auto;html=1;exitX=0.25;exitY=1;exitDx=0;exitDy=0;" edge="1" parent="1" source="NsyLQ7PbHrCSLDHFmtmj-81" target="NsyLQ7PbHrCSLDHFmtmj-90">
          <mxGeometry relative="1" as="geometry" />
        </mxCell>
        <mxCell id="NsyLQ7PbHrCSLDHFmtmj-81" value="Reclamation of Stonetalon Mountains" style="rounded=0;whiteSpace=wrap;html=1;" vertex="1" parent="1">
          <mxGeometry x="354.5" y="960" width="120" height="60" as="geometry" />
        </mxCell>
        <mxCell id="NsyLQ7PbHrCSLDHFmtmj-82" style="edgeStyle=orthogonalEdgeStyle;rounded=0;orthogonalLoop=1;jettySize=auto;html=1;exitX=0.5;exitY=1;exitDx=0;exitDy=0;" edge="1" parent="1" source="NsyLQ7PbHrCSLDHFmtmj-83" target="NsyLQ7PbHrCSLDHFmtmj-89">
          <mxGeometry relative="1" as="geometry" />
        </mxCell>
        <mxCell id="NsyLQ7PbHrCSLDHFmtmj-83" value="The New Stonetalon Roosts" style="rounded=0;whiteSpace=wrap;html=1;" vertex="1" parent="1">
          <mxGeometry x="354.5" y="1080" width="120" height="60" as="geometry" />
        </mxCell>
        <mxCell id="NsyLQ7PbHrCSLDHFmtmj-101" style="edgeStyle=orthogonalEdgeStyle;rounded=0;orthogonalLoop=1;jettySize=auto;html=1;exitX=0.5;exitY=1;exitDx=0;exitDy=0;entryX=0.75;entryY=0;entryDx=0;entryDy=0;" edge="1" parent="1" source="NsyLQ7PbHrCSLDHFmtmj-84" target="NsyLQ7PbHrCSLDHFmtmj-89">
          <mxGeometry relative="1" as="geometry" />
        </mxCell>
        <mxCell id="NsyLQ7PbHrCSLDHFmtmj-84" value="Ressurection of Aviana" style="rounded=0;whiteSpace=wrap;html=1;" vertex="1" parent="1">
          <mxGeometry x="540.5" y="1080" width="120" height="60" as="geometry" />
        </mxCell>
        <mxCell id="NsyLQ7PbHrCSLDHFmtmj-86" style="edgeStyle=orthogonalEdgeStyle;rounded=0;orthogonalLoop=1;jettySize=auto;html=1;" edge="1" parent="1" source="NsyLQ7PbHrCSLDHFmtmj-87" target="NsyLQ7PbHrCSLDHFmtmj-88">
          <mxGeometry relative="1" as="geometry" />
        </mxCell>
        <mxCell id="NsyLQ7PbHrCSLDHFmtmj-87" value="Alliance with Elemental Lord" style="rounded=0;whiteSpace=wrap;html=1;" vertex="1" parent="1">
          <mxGeometry x="0.5" y="960" width="120" height="60" as="geometry" />
        </mxCell>
        <mxCell id="NsyLQ7PbHrCSLDHFmtmj-88" value="Chosen of the Wind" style="rounded=0;whiteSpace=wrap;html=1;" vertex="1" parent="1">
          <mxGeometry x="1" y="1080" width="120" height="60" as="geometry" />
        </mxCell>
        <mxCell id="NsyLQ7PbHrCSLDHFmtmj-89" value="Fate of the Children of Aviana" style="rounded=0;whiteSpace=wrap;html=1;" vertex="1" parent="1">
          <mxGeometry x="354.5" y="1200" width="120" height="60" as="geometry" />
        </mxCell>
        <mxCell id="NsyLQ7PbHrCSLDHFmtmj-90" value="Unification of Lost Harpy Tribes" style="rounded=0;whiteSpace=wrap;html=1;" vertex="1" parent="1">
          <mxGeometry x="170.5" y="1080" width="120" height="60" as="geometry" />
        </mxCell>
        <mxCell id="NsyLQ7PbHrCSLDHFmtmj-91" value="Mighty Roost" style="rounded=0;whiteSpace=wrap;html=1;" vertex="1" parent="1">
          <mxGeometry x="180" y="600" width="120" height="60" as="geometry" />
        </mxCell>
        <mxCell id="NsyLQ7PbHrCSLDHFmtmj-92" value="Quillboar Worshippers" style="rounded=0;whiteSpace=wrap;html=1;" vertex="1" parent="1">
          <mxGeometry x="1" y="600" width="120" height="60" as="geometry" />
        </mxCell>
        <mxCell id="NsyLQ7PbHrCSLDHFmtmj-97" value="Efforts of Civilization" style="rounded=0;whiteSpace=wrap;html=1;" vertex="1" parent="1">
          <mxGeometry x="180" width="120" height="60" as="geometry" />
        </mxCell>
        <mxCell id="NsyLQ7PbHrCSLDHFmtmj-98" value="Kobold Alliance" style="rounded=0;whiteSpace=wrap;html=1;" vertex="1" parent="1">
          <mxGeometry x="540" y="600" width="120" height="60" as="geometry" />
        </mxCell>
        <mxCell id="NsyLQ7PbHrCSLDHFmtmj-99" value="Source of Shiny Rocks" style="rounded=0;whiteSpace=wrap;html=1;" vertex="1" parent="1">
          <mxGeometry x="707" y="600" width="120" height="60" as="geometry" />
        </mxCell>
      </root>
    </mxGraphModel>
  </diagram>
</mxfile>
